<svg xmlns="http://www.w3.org/2000/svg" xmlns:xlink="http://www.w3.org/1999/xlink" width="500" zoomAndPan="magnify"
    viewBox="0 0 375 374.999991" height="500" preserveAspectRatio="xMidYMid meet" version="1.0">
    <defs>
        <clipPath id="f013102b28">
            <path d="M 55.417969 319 L 280 319 L 280 374 L 55.417969 374 Z M 55.417969 319 " clip-rule="nonzero" />
        </clipPath>
    </defs>
    <path fill="#d3c3b9"
        d="M 152.355469 5.738281 C 155.859375 8.015625 159.449219 10.683594 162.382812 13.707031 C 165.40625 16.816406 167.902344 20.363281 169.917969 24.171875 C 171.84375 27.851562 173.332031 31.882812 173.902344 35.996094 C 175.699219 49.441406 168.648438 62.40625 160.765625 72.742188 C 155.464844 79.660156 149.203125 85.878906 143.554688 92.535156 C 137.511719 99.714844 131.683594 107.25 127.304688 115.570312 C 123.144531 123.539062 120.210938 132.34375 119.554688 141.363281 C 119.378906 144.035156 119.511719 146.707031 119.421875 149.378906 C 119.421875 149.378906 108.605469 135.1875 108.605469 115.261719 C 109.480469 97.484375 120.386719 83.121094 133.523438 72.082031 C 138.867188 67.617188 144.605469 63.585938 149.726562 58.902344 C 157.785156 51.542969 163.785156 42.042969 164.222656 30.917969 C 164.574219 20.757812 158.96875 12.832031 152.355469 5.738281 Z M 152.355469 5.738281 "
        fill-opacity="1" fill-rule="nonzero" />
    <path fill="#d3c3b9"
        d="M 218.964844 53.734375 C 223.214844 59.078125 226.714844 65.339844 229.082031 71.734375 C 232.847656 81.894531 233.765625 92.886719 231.882812 103.570312 C 228.820312 120.824219 218.527344 134.925781 205.695312 146.355469 C 196.628906 154.371094 186.601562 161.550781 178.675781 170.792969 C 174.644531 175.433594 171.1875 180.867188 168.648438 186.472656 C 168.207031 187.476562 167.769531 188.484375 167.375 189.535156 C 166.984375 190.542969 166.632812 191.59375 166.324219 192.644531 C 166.019531 193.695312 165.710938 194.746094 165.492188 195.796875 C 165.230469 196.851562 165.054688 197.902344 164.878906 198.996094 C 164.707031 200.046875 164.617188 201.140625 164.53125 202.191406 C 164.441406 203.242188 164.441406 204.339844 164.441406 205.433594 C 164.441406 206.527344 164.53125 207.578125 164.617188 208.675781 C 164.75 209.769531 164.878906 210.820312 165.097656 211.871094 C 165.320312 212.964844 165.582031 214.015625 165.886719 215.066406 C 166.019531 215.460938 166.152344 215.898438 166.28125 216.292969 C 166.457031 216.730469 166.589844 217.214844 166.808594 217.652344 C 166.808594 217.695312 166.894531 217.871094 166.9375 217.914062 C 166.105469 217.5625 164.75 216.777344 164.136719 216.335938 C 157.214844 211.300781 154.808594 202.5 153.539062 194.484375 C 152.835938 190.019531 152.882812 185.507812 153.230469 180.996094 C 153.976562 171.097656 157.304688 161.640625 162.691406 153.320312 C 167.203125 146.398438 173.15625 140.3125 178.980469 134.53125 C 188.617188 124.898438 198.996094 115.527344 206.964844 104.445312 C 214.324219 94.242188 219.535156 81.9375 220.148438 69.28125 C 220.367188 63.980469 219.796875 58.859375 218.964844 53.734375 Z M 218.964844 53.734375 "
        fill-opacity="1" fill-rule="nonzero" />
    <g clip-path="url(#f013102b28)">
        <path fill="#d3c3b9"
            d="M 278.742188 319.820312 L 279.003906 319.820312 C 279.003906 320.214844 272.085938 327.835938 271.167969 328.796875 C 255.136719 346.273438 234.773438 358.535156 212.351562 365.980469 C 199.914062 370.09375 187.039062 372.722656 173.945312 373.292969 C 135.976562 375 96.257812 360.023438 68.230469 334.449219 L 55.441406 320.082031 C 65.6875 328.273438 77.730469 333.265625 90.167969 337.074219 C 107.425781 342.375 124.855469 344.914062 142.722656 346.753906 C 157.261719 348.242188 171.886719 348.199219 186.425781 347.191406 C 209.769531 345.570312 232.628906 341.410156 254.480469 332.828125 C 263.019531 329.5 271.648438 325.644531 278.742188 319.820312 Z M 278.742188 319.820312 "
            fill-opacity="1" fill-rule="nonzero" />
    </g>
    <path fill="#d3c3b9"
        d="M 150.953125 0.964844 C 160.105469 0 170.96875 2.757812 179.113281 6.742188 C 192.207031 13.183594 202.324219 24.261719 207.054688 38.101562 C 210.335938 47.691406 210.996094 57.851562 209.503906 67.835938 C 205.914062 91.484375 188.617188 108.957031 172.148438 124.855469 C 163.566406 133.132812 154.808594 141.582031 149.507812 152.488281 C 144.867188 162.035156 142.808594 172.894531 143.949219 183.492188 C 144.648438 190.105469 146.617188 196.675781 148.808594 202.980469 L 151.566406 210.292969 L 147.539062 204.863281 C 144.296875 200.179688 141.976562 195.011719 139.65625 189.84375 C 137.511719 185.070312 135.40625 180.339844 133.65625 175.390625 C 130.546875 166.632812 128.445312 157.085938 128.882812 147.757812 C 129.628906 131.992188 137.816406 118.066406 147.890625 106.417969 L 159.144531 94.199219 C 164.488281 88.375 169.652344 82.332031 174.207031 75.894531 C 179.683594 68.097656 184.0625 60.039062 185.726562 50.539062 C 187.652344 39.371094 185.070312 28.113281 178.457031 18.917969 C 171.84375 9.765625 162.164062 2.804688 150.953125 0.964844 Z M 150.953125 0.964844 "
        fill-opacity="1" fill-rule="nonzero" />
    <path fill="#d3c3b9"
        d="M 315.046875 222.425781 C 311.238281 214.585938 304.625 209.066406 296.390625 206.308594 C 289.210938 203.902344 280.320312 203.902344 273.3125 206.921875 L 269.589844 208.628906 C 269.109375 208.847656 268.582031 209.242188 268.058594 209.199219 C 268.101562 207.621094 268.144531 206.046875 267.925781 204.511719 L 267.882812 204.121094 C 266.875 197.855469 261.925781 192.996094 257.019531 189.492188 C 252.6875 186.382812 247.5625 184.019531 242.65625 182.003906 C 230.789062 177.144531 218.308594 174.296875 205.609375 172.71875 C 199.914062 172.019531 194.132812 171.449219 188.441406 171.320312 C 183.929688 175.566406 180.207031 180.296875 177.054688 185.640625 C 187.214844 185.59375 197.199219 186.515625 207.226562 188.003906 C 217.082031 189.492188 226.804688 191.464844 236.132812 195.097656 C 240.6875 196.894531 245.679688 199.128906 249.183594 202.628906 C 250.539062 203.988281 251.984375 205.695312 251.898438 207.753906 C 251.765625 210.207031 249.707031 212.394531 247.867188 213.839844 C 241.78125 218.789062 232.539062 221.242188 225.050781 222.996094 C 207.316406 227.15625 188.921875 228.554688 170.75 228.601562 C 157.042969 228.644531 143.507812 227.988281 129.890625 226.367188 C 119.46875 225.140625 108.824219 223.082031 98.882812 219.621094 C 94.898438 218.222656 91 216.730469 87.367188 214.671875 C 85.046875 213.359375 82.503906 211.914062 80.929688 209.726562 C 80.449219 209.066406 80.097656 208.234375 80.140625 207.402344 C 80.230469 205.566406 81.9375 204.164062 83.207031 203.023438 C 84.78125 201.667969 86.578125 200.570312 88.417969 199.566406 C 101.117188 192.644531 116.007812 189.753906 130.152344 187.347656 L 124.722656 173.726562 C 109.964844 176.484375 94.898438 179.203125 81.628906 186.644531 C 76.988281 189.273438 72.390625 192.425781 69.367188 196.9375 C 66.742188 200.835938 66.519531 205.257812 66.433594 209.769531 C 66.128906 220.9375 66.871094 232.320312 68.667969 243.359375 C 69.804688 250.234375 71.425781 257.023438 73.660156 263.632812 C 75.28125 268.496094 77.382812 273.226562 79.484375 277.867188 C 91.175781 302.523438 111.757812 321.703125 137.511719 330.8125 C 160.371094 338.914062 186.03125 337.03125 207.796875 326.652344 C 213.535156 323.894531 219.050781 320.347656 224 316.359375 L 231.269531 310.1875 C 232.367188 309.222656 233.941406 307.253906 235.167969 306.726562 C 235.429688 306.59375 236.261719 306.683594 236.570312 306.640625 L 240.378906 306.332031 C 245.109375 305.851562 249.707031 305.28125 254.304688 304.1875 C 281.195312 297.707031 306.15625 279.75 315.527344 252.90625 C 318.8125 243.402344 319.558594 231.664062 315.046875 222.425781 Z M 239.855469 239.109375 L 223.652344 266 C 213.667969 281.941406 201.492188 297.441406 184.761719 306.640625 C 165.492188 317.238281 143.160156 317.851562 122.402344 311.851562 L 117.671875 310.40625 C 126.253906 309.53125 134.792969 308.171875 142.894531 305.019531 C 148.984375 302.652344 154.371094 299.152344 159.582031 295.296875 C 163.261719 292.582031 166.9375 289.777344 170.3125 286.667969 C 175.699219 281.808594 180.601562 276.421875 185.375 270.949219 C 192.46875 262.800781 199.609375 254.132812 207.796875 247.082031 C 218.746094 237.621094 230.921875 230.394531 243.796875 223.871094 L 254.570312 218.746094 C 254.960938 218.660156 254.742188 218.703125 255.136719 218.746094 C 249.796875 225.402344 244.496094 231.882812 239.855469 239.109375 Z M 300.113281 253.125 C 293.152344 268.800781 278.347656 281.195312 262.539062 287.238281 C 257.898438 289.121094 252.90625 290.261719 247.957031 291.136719 C 260.480469 271.910156 266.042969 250.320312 268.277344 227.722656 C 273.269531 222.730469 278.699219 219.140625 285.925781 218.703125 C 288.597656 218.570312 291.046875 219.054688 293.5 220.058594 C 297.703125 221.8125 300.988281 225.050781 302.652344 229.300781 C 305.585938 236.746094 303.222656 246.160156 300.113281 253.125 Z M 300.113281 253.125 "
        fill-opacity="1" fill-rule="nonzero" />
</svg>